<svg id="changeColor" fill="#DC7633" xmlns="http://www.w3.org/2000/svg" xmlns:xlink="http://www.w3.org/1999/xlink" width="16" height="16" zoomAndPan="magnify" viewBox="0 0 375 374.9999" height="200" version="1.0"><defs></defs><g></g><g id="inner-icon" transform="translate(85, 75)"> <svg xmlns="http://www.w3.org/2000/svg" viewBox="0 0 20 20" id="IconChangeColor" height="199.8" width="199.8"><path d="M20 14v4a2 2 0 0 1-2 2h-4v-2a2 2 0 0 0-2-2 2 2 0 0 0-2 2v2H6a2 2 0 0 1-2-2v-4H2a2 2 0 0 1-2-2 2 2 0 0 1 2-2h2V6c0-1.1.9-2 2-2h4V2a2 2 0 0 1 2-2 2 2 0 0 1 2 2v2h4a2 2 0 0 1 2 2v4h-2a2 2 0 0 0-2 2 2 2 0 0 0 2 2h2z" id="mainIconPathAttribute" fill="#737373"></path></svg> </g></svg>
